<mxfile host="app.diagrams.net" agent="Mozilla/5.0 (Windows NT 10.0; Win64; x64) AppleWebKit/537.36 (KHTML, like Gecko) Chrome/129.0.0.0 Safari/537.36" version="24.7.14">
  <diagram name="Page-1" id="MSqYXXy30V1sFn1s4_8o">
    <mxGraphModel dx="1050" dy="563" grid="1" gridSize="10" guides="1" tooltips="1" connect="1" arrows="1" fold="1" page="1" pageScale="1" pageWidth="827" pageHeight="1169" math="0" shadow="0">
      <root>
        <mxCell id="0" />
        <mxCell id="1" parent="0" />
        <mxCell id="zOK9kGsAJfB9ZcYWZ8Sq-1" value="" style="shape=waypoint;sketch=0;fillStyle=solid;size=6;pointerEvents=1;points=[];fillColor=none;resizable=0;rotatable=0;perimeter=centerPerimeter;snapToPoint=1;strokeWidth=5;" parent="1" vertex="1">
          <mxGeometry x="250" y="250" width="20" height="20" as="geometry" />
        </mxCell>
        <mxCell id="zOK9kGsAJfB9ZcYWZ8Sq-4" value="" style="endArrow=classic;html=1;rounded=0;exitX=0.933;exitY=0.6;exitDx=0;exitDy=0;exitPerimeter=0;" parent="1" source="zOK9kGsAJfB9ZcYWZ8Sq-1" target="zOK9kGsAJfB9ZcYWZ8Sq-5" edge="1">
          <mxGeometry width="50" height="50" relative="1" as="geometry">
            <mxPoint x="410" y="340" as="sourcePoint" />
            <mxPoint x="340" y="260" as="targetPoint" />
          </mxGeometry>
        </mxCell>
        <mxCell id="zOK9kGsAJfB9ZcYWZ8Sq-7" style="edgeStyle=orthogonalEdgeStyle;rounded=0;orthogonalLoop=1;jettySize=auto;html=1;entryX=0;entryY=0.5;entryDx=0;entryDy=0;" parent="1" source="zOK9kGsAJfB9ZcYWZ8Sq-5" target="zOK9kGsAJfB9ZcYWZ8Sq-6" edge="1">
          <mxGeometry relative="1" as="geometry" />
        </mxCell>
        <mxCell id="zOK9kGsAJfB9ZcYWZ8Sq-5" value="&lt;div style=&quot;font-size: 7px;&quot;&gt;&lt;div&gt;&lt;b&gt;Usuário acessa a página de busca.&lt;/b&gt;&lt;/div&gt;&lt;/div&gt;" style="rounded=1;whiteSpace=wrap;html=1;" parent="1" vertex="1">
          <mxGeometry x="310" y="245" width="80" height="30" as="geometry" />
        </mxCell>
        <mxCell id="zOK9kGsAJfB9ZcYWZ8Sq-9" style="edgeStyle=orthogonalEdgeStyle;rounded=0;orthogonalLoop=1;jettySize=auto;html=1;entryX=0;entryY=0.5;entryDx=0;entryDy=0;" parent="1" source="zOK9kGsAJfB9ZcYWZ8Sq-6" target="zOK9kGsAJfB9ZcYWZ8Sq-8" edge="1">
          <mxGeometry relative="1" as="geometry" />
        </mxCell>
        <mxCell id="zOK9kGsAJfB9ZcYWZ8Sq-6" value="&lt;div style=&quot;font-size: 7px;&quot;&gt;&lt;div&gt;&lt;b&gt;Tela de Busca&lt;/b&gt;&lt;/div&gt;&lt;/div&gt;" style="rounded=1;whiteSpace=wrap;html=1;" parent="1" vertex="1">
          <mxGeometry x="430" y="245" width="80" height="30" as="geometry" />
        </mxCell>
        <mxCell id="zOK9kGsAJfB9ZcYWZ8Sq-17" style="edgeStyle=orthogonalEdgeStyle;rounded=0;orthogonalLoop=1;jettySize=auto;html=1;entryX=0.5;entryY=0;entryDx=0;entryDy=0;" parent="1" source="zOK9kGsAJfB9ZcYWZ8Sq-8" target="zOK9kGsAJfB9ZcYWZ8Sq-16" edge="1">
          <mxGeometry relative="1" as="geometry" />
        </mxCell>
        <mxCell id="zOK9kGsAJfB9ZcYWZ8Sq-8" value="&lt;font style=&quot;font-size: 7px;&quot;&gt;&lt;b&gt;Usuário informa o código ou nome da ação.&lt;/b&gt;&lt;/font&gt;" style="rounded=1;whiteSpace=wrap;html=1;" parent="1" vertex="1">
          <mxGeometry x="560" y="245" width="90" height="30" as="geometry" />
        </mxCell>
        <mxCell id="zOK9kGsAJfB9ZcYWZ8Sq-14" value="&lt;font size=&quot;1&quot; style=&quot;&quot;&gt;&lt;b style=&quot;font-size: 9px;&quot;&gt;Sim&lt;/b&gt;&lt;/font&gt;" style="edgeStyle=orthogonalEdgeStyle;rounded=0;orthogonalLoop=1;jettySize=auto;html=1;entryX=1;entryY=0.5;entryDx=0;entryDy=0;" parent="1" source="zOK9kGsAJfB9ZcYWZ8Sq-10" target="zOK9kGsAJfB9ZcYWZ8Sq-12" edge="1">
          <mxGeometry x="-0.3333" y="-10" relative="1" as="geometry">
            <mxPoint as="offset" />
          </mxGeometry>
        </mxCell>
        <mxCell id="zOK9kGsAJfB9ZcYWZ8Sq-20" style="edgeStyle=orthogonalEdgeStyle;rounded=0;orthogonalLoop=1;jettySize=auto;html=1;entryX=0.5;entryY=0;entryDx=0;entryDy=0;" parent="1" source="zOK9kGsAJfB9ZcYWZ8Sq-10" target="zOK9kGsAJfB9ZcYWZ8Sq-19" edge="1">
          <mxGeometry relative="1" as="geometry" />
        </mxCell>
        <mxCell id="zOK9kGsAJfB9ZcYWZ8Sq-10" value="" style="rhombus;whiteSpace=wrap;html=1;" parent="1" vertex="1">
          <mxGeometry x="565" y="380" width="80" height="40" as="geometry" />
        </mxCell>
        <mxCell id="zOK9kGsAJfB9ZcYWZ8Sq-13" style="edgeStyle=orthogonalEdgeStyle;rounded=0;orthogonalLoop=1;jettySize=auto;html=1;entryX=0.5;entryY=1;entryDx=0;entryDy=0;" parent="1" source="zOK9kGsAJfB9ZcYWZ8Sq-12" target="zOK9kGsAJfB9ZcYWZ8Sq-6" edge="1">
          <mxGeometry relative="1" as="geometry" />
        </mxCell>
        <mxCell id="zOK9kGsAJfB9ZcYWZ8Sq-12" value="&lt;font style=&quot;font-size: 7px;&quot;&gt;&lt;b&gt;&amp;nbsp;Sistema exibe mensagem de erro e pede para tentar mais tarde.&lt;/b&gt;&lt;/font&gt;" style="rounded=1;whiteSpace=wrap;html=1;" parent="1" vertex="1">
          <mxGeometry x="420" y="377.5" width="100" height="45" as="geometry" />
        </mxCell>
        <mxCell id="zOK9kGsAJfB9ZcYWZ8Sq-15" value="&lt;span style=&quot;font-size: 7px; text-wrap: wrap;&quot;&gt;&lt;b&gt;Erro na comunicação com a B3?&lt;/b&gt;&lt;/span&gt;" style="text;html=1;align=center;verticalAlign=middle;resizable=0;points=[];autosize=1;strokeColor=none;fillColor=none;" parent="1" vertex="1">
          <mxGeometry x="610" y="380" width="130" height="30" as="geometry" />
        </mxCell>
        <mxCell id="zOK9kGsAJfB9ZcYWZ8Sq-18" style="edgeStyle=orthogonalEdgeStyle;rounded=0;orthogonalLoop=1;jettySize=auto;html=1;entryX=0.5;entryY=0;entryDx=0;entryDy=0;" parent="1" source="zOK9kGsAJfB9ZcYWZ8Sq-16" target="zOK9kGsAJfB9ZcYWZ8Sq-10" edge="1">
          <mxGeometry relative="1" as="geometry" />
        </mxCell>
        <mxCell id="zOK9kGsAJfB9ZcYWZ8Sq-16" value="&lt;div style=&quot;&quot;&gt;&lt;span style=&quot;font-family: -apple-system, BlinkMacSystemFont, &amp;quot;Segoe UI&amp;quot;, &amp;quot;Noto Sans&amp;quot;, Helvetica, Arial, sans-serif, &amp;quot;Apple Color Emoji&amp;quot;, &amp;quot;Segoe UI Emoji&amp;quot;; text-align: start; font-size: 7px;&quot;&gt;&lt;b&gt;Sistema busca as ações correspondentes na B3&lt;/b&gt;&lt;/span&gt;&lt;br&gt;&lt;/div&gt;" style="rounded=1;whiteSpace=wrap;html=1;" parent="1" vertex="1">
          <mxGeometry x="560" y="310" width="90" height="30" as="geometry" />
        </mxCell>
        <mxCell id="zOK9kGsAJfB9ZcYWZ8Sq-27" style="edgeStyle=orthogonalEdgeStyle;rounded=0;orthogonalLoop=1;jettySize=auto;html=1;" parent="1" source="zOK9kGsAJfB9ZcYWZ8Sq-19" target="zOK9kGsAJfB9ZcYWZ8Sq-21" edge="1">
          <mxGeometry relative="1" as="geometry" />
        </mxCell>
        <mxCell id="zOK9kGsAJfB9ZcYWZ8Sq-19" value="&lt;div style=&quot;&quot;&gt;&lt;span style=&quot;font-family: -apple-system, BlinkMacSystemFont, &amp;quot;Segoe UI&amp;quot;, &amp;quot;Noto Sans&amp;quot;, Helvetica, Arial, sans-serif, &amp;quot;Apple Color Emoji&amp;quot;, &amp;quot;Segoe UI Emoji&amp;quot;;&quot;&gt;&lt;b style=&quot;&quot;&gt;&lt;font style=&quot;font-size: 7px;&quot;&gt;Sistema exibe a lista de ações encontradas&amp;nbsp;&lt;/font&gt;&lt;/b&gt;&lt;/span&gt;&lt;br&gt;&lt;/div&gt;" style="rounded=1;whiteSpace=wrap;html=1;" parent="1" vertex="1">
          <mxGeometry x="560" y="450" width="90" height="40" as="geometry" />
        </mxCell>
        <mxCell id="zOK9kGsAJfB9ZcYWZ8Sq-31" style="edgeStyle=orthogonalEdgeStyle;rounded=0;orthogonalLoop=1;jettySize=auto;html=1;entryX=1;entryY=0.5;entryDx=0;entryDy=0;" parent="1" source="zOK9kGsAJfB9ZcYWZ8Sq-21" target="zOK9kGsAJfB9ZcYWZ8Sq-22" edge="1">
          <mxGeometry relative="1" as="geometry" />
        </mxCell>
        <mxCell id="zOK9kGsAJfB9ZcYWZ8Sq-21" value="&lt;div style=&quot;&quot;&gt;&lt;font size=&quot;1&quot; face=&quot;-apple-system, BlinkMacSystemFont, Segoe UI, Noto Sans, Helvetica, Arial, sans-serif, Apple Color Emoji, Segoe UI Emoji&quot;&gt;&lt;b style=&quot;font-size: 6px;&quot;&gt;Sistema destaca as ações com maiores altas e maiores baixas.&lt;/b&gt;&lt;/font&gt;&lt;br&gt;&lt;/div&gt;" style="rounded=1;whiteSpace=wrap;html=1;" parent="1" vertex="1">
          <mxGeometry x="425" y="450" width="90" height="40" as="geometry" />
        </mxCell>
        <mxCell id="zOK9kGsAJfB9ZcYWZ8Sq-35" style="edgeStyle=orthogonalEdgeStyle;rounded=0;orthogonalLoop=1;jettySize=auto;html=1;entryX=1;entryY=0.5;entryDx=0;entryDy=0;" parent="1" source="zOK9kGsAJfB9ZcYWZ8Sq-22" target="zOK9kGsAJfB9ZcYWZ8Sq-33" edge="1">
          <mxGeometry relative="1" as="geometry" />
        </mxCell>
        <mxCell id="zOK9kGsAJfB9ZcYWZ8Sq-22" value="&lt;div style=&quot;&quot;&gt;&lt;span style=&quot;font-family: -apple-system, BlinkMacSystemFont, &amp;quot;Segoe UI&amp;quot;, &amp;quot;Noto Sans&amp;quot;, Helvetica, Arial, sans-serif, &amp;quot;Apple Color Emoji&amp;quot;, &amp;quot;Segoe UI Emoji&amp;quot;; text-align: start; font-size: 7px;&quot;&gt;&lt;b style=&quot;&quot;&gt;Sistema oferece botão de &quot;negócio rápido&quot; para cada ação listada.&lt;/b&gt;&lt;/span&gt;&lt;br&gt;&lt;/div&gt;" style="rounded=1;whiteSpace=wrap;html=1;" parent="1" vertex="1">
          <mxGeometry x="290" y="450" width="90" height="40" as="geometry" />
        </mxCell>
        <mxCell id="zOK9kGsAJfB9ZcYWZ8Sq-32" style="edgeStyle=orthogonalEdgeStyle;rounded=0;orthogonalLoop=1;jettySize=auto;html=1;entryX=0.5;entryY=0;entryDx=0;entryDy=0;" parent="1" edge="1">
          <mxGeometry relative="1" as="geometry">
            <mxPoint x="230.0256410256411" y="459.99" as="sourcePoint" />
            <mxPoint x="230" y="479.99" as="targetPoint" />
          </mxGeometry>
        </mxCell>
        <mxCell id="zOK9kGsAJfB9ZcYWZ8Sq-33" value="" style="ellipse;whiteSpace=wrap;html=1;" parent="1" vertex="1">
          <mxGeometry x="220" y="460.02" width="20" height="20" as="geometry" />
        </mxCell>
        <mxCell id="zOK9kGsAJfB9ZcYWZ8Sq-34" value="" style="ellipse;whiteSpace=wrap;html=1;fillStyle=solid;fillColor=#000000;" parent="1" vertex="1">
          <mxGeometry x="225" y="465.02" width="10" height="10" as="geometry" />
        </mxCell>
      </root>
    </mxGraphModel>
  </diagram>
</mxfile>
